<svg width="170" height="170" viewBox="0 0 170 170" fill="none" xmlns="http://www.w3.org/2000/svg">
<circle cx="85" cy="85" r="85" fill="white"/>
<path d="M104.971 115H65.0288C59.5092 115 55 110.491 55 104.971V65.0287C55 59.5092 59.5092 55 65.0288 55H104.971C110.491 55 115 59.5092 115 65.0287V104.971C115 110.515 110.515 115 104.971 115Z" fill="black"/>
<path d="M85.0123 100.413C80.8974 100.413 77.0288 98.8111 74.1212 95.9035C71.2136 92.9959 69.6119 89.1273 69.6119 85.0123C69.6119 80.8974 71.2136 77.0288 74.1212 74.1212C77.0288 71.2136 80.8974 69.6119 85.0123 69.6119C89.1273 69.6119 92.9959 71.2136 95.9035 74.1212C98.8111 77.0288 100.413 80.8974 100.413 85.0123C100.413 89.1273 98.8111 92.9959 95.9035 95.9035C92.9713 98.8111 89.1273 100.413 85.0123 100.413ZM85.0123 72.8891C78.3347 72.8891 72.8891 78.3101 72.8891 85.0123C72.8891 91.69 78.3101 97.1355 85.0123 97.1355C91.69 97.1355 97.1356 91.7146 97.1356 85.0123C97.1109 78.3347 91.69 72.8891 85.0123 72.8891Z" fill="white"/>
<path d="M103.415 69.1058C105.048 69.1058 106.371 67.7819 106.371 66.1488C106.371 64.5158 105.048 63.1919 103.415 63.1919C101.781 63.1919 100.458 64.5158 100.458 66.1488C100.458 67.7819 101.781 69.1058 103.415 69.1058Z" fill="white"/>
</svg>
