<svg width="399" height="218" viewBox="0 0 399 218" fill="none" xmlns="http://www.w3.org/2000/svg">
<path d="M5.5 191L54.2401 157.694C61.7313 152.575 68.7425 146.787 75.1876 140.401L120 96L165 52.5L176.376 43.9681C180.755 40.6838 185.698 38.229 190.962 36.7253V36.7253C194.968 35.5807 199.114 35 203.28 35H205.307C209.755 35 214.189 35.5002 218.524 36.4913L229.5 39V39C233.99 40.1975 238.747 38.4213 241.353 34.5736L247.5 25.5L253.746 15.2381C254.11 14.6402 254.96 14.5916 255.39 15.1442L260.624 21.8733C261.05 22.421 261.89 22.379 262.26 21.7915L272.313 5.79774C272.403 5.65354 272.61 5.64406 272.714 5.77935V5.77935C276.824 11.1546 279.365 17.5633 280.056 24.2948L281 33.5V33.5C281 42.079 284.703 50.2405 291.16 55.8898L293 57.5L307.5 72.5L323 92L337 110L357.5 131L372 147.5L382.5 161.5L387.591 168.628C389.191 170.868 390.517 173.292 391.539 175.848V175.848C393.165 179.912 394 184.249 394 188.626V191V194.881C394 196.622 393.816 198.358 393.451 200.061V200.061C392.822 202.996 391.664 205.792 390.034 208.311L387 213" stroke="black" stroke-width="10" stroke-linecap="round"/>
<path d="M272.5 95L264 93L267.818 90.2233C268.927 89.4164 270.191 88.8464 271.53 88.5488L272.103 88.4215C273.356 88.1431 274.651 88.1084 275.917 88.3194L280 89H283C284.889 89 286.667 89.8892 287.8 91.4C288.579 92.4386 289 93.7018 289 95V97.5H287.906C282.669 97.5 277.468 96.6558 272.5 95Z" fill="black" stroke="black"/>
</svg>
