<svg width="170" height="170" viewBox="0 0 170 170" fill="none" xmlns="http://www.w3.org/2000/svg">
<circle cx="85" cy="85" r="85" fill="white"/>
<path d="M51 106.4C58.4009 106.817 64.8727 105.087 71.1844 100.505C64.8087 99.4158 60.3873 96.5003 57.9844 90.477C59.8427 90.2207 61.4767 90.7013 63.399 89.9324C57.1194 87.1771 53.0505 83.0441 52.8903 75.8994C54.8767 76.0596 56.3825 77.3732 58.7534 77.181C52.9864 71.5422 51.2243 65.3908 54.8446 57.9257C60.8679 64.8461 67.9164 69.5558 76.5348 71.7665C77.0154 71.8946 77.4639 72.0228 77.9445 72.1189C80.1552 72.6315 82.7824 73.7208 84.128 73.5606C86.4348 73.2723 84.128 70.6131 84.7047 67.1529C86.5309 56.3879 98.3852 51.486 107.164 57.7976C109.727 59.6558 111.745 59.6238 114.276 58.5024C115.59 57.9257 116.936 57.3491 118.505 56.6762C118.153 59.752 115.782 61.45 113.892 63.7247C116.039 64.2053 117.769 63.5966 119.755 62.9558C119.082 65.1665 117.416 66.416 115.91 67.6335C114.34 68.883 113.732 70.1966 113.668 72.247C112.706 103.293 77.4319 127.289 53.3068 108.194C50.968 106.336 53.2427 108.194 51 106.4Z" fill="black"/>
</svg>
